{"title":"Miss Lovely 2014 Hindi DVDSCR-Rip x264 AC3-CoolCandy ","uid":9536659,"size":435430800,"categoryP":"video","categoryS":"movies","magnet":"?xt=urn:btih:49ecbcd70185cf10292474ad23ff540620f4539c&amp;dn=Miss+Lovely+2014+Hindi+DVDSCR-Rip+x264+AC3-CoolCandy+&amp;tr=udp%3A%2F%2Ftracker.openbittorrent.com%3A80&amp;tr=udp%3A%2F%2Fopen.demonii.com%3A1337&amp;tr=udp%3A%2F%2Ftracker.coppersurfer.tk%3A6969&amp;tr=udp%3A%2F%2Fexodus.desync.com%3A6969","seeders":1,"leechers":0,"uploader":"HeroMaster","files":-1,"time":1390945633,"description":":::::::: CoolCandy PRESENTS ::::::::\n\n &lt;a href=&quot;\nhttp://i.imgur.com/4uRDGU0.jpg&quot; rel=&quot;nofollow&quot; target=&quot;_NEW&quot;&gt;\nhttp://i.imgur.com/4uRDGU0.jpg&lt;/a&gt;\n\n\n:::: Miss Lovely 2014 Hindi DVDSCR-Rip x264 AC3-CoolCandy ::::\n\n\n::Information::\n\n\nGeneral\n\nFormat : Matroska\nFormat version : Version 2\nFile size : 413 MiB\nDuration : 1h 51mn\nOverall bit rate : 517 Kbps\nEncoded date : UTC 2014-01-27 04:55:41\nWriting application : Lavf54.6.100\nWriting library : Lavf54.6.100\nLanguage : Hindi\nSubtitles : None\n\n\nVideo\n\nID : 1\nFormat : AVC\nFormat/Info : Advanced Video Codec\nFormat profile : &lt;a class=&quot;__cf_email__&quot; href=&quot;/cdn-cgi/l/email-protection&quot; data-cfemail=&quot;e7a58694828b8e8982a7abd6c9d4&quot;&gt;[email&amp;#160;protected]&lt;/a&gt;&lt;script cf-hash='f9e31' type=&quot;text/javascript&quot;&gt;\n/* &lt;![CDATA[ */!function(){try{var t=&quot;currentScript&quot;in document?document.currentScript:function(){for(var t=document.getElementsByTagName(&quot;script&quot;),e=t.length;e--;)if(t[e].getAttribute(&quot;cf-hash&quot;))return t[e]}();if(t&amp;&amp;t.previousSibling){var e,r,n,i,c=t.previousSibling,a=c.getAttribute(&quot;data-cfemail&quot;);if(a){for(e=&quot;&quot;,r=parseInt(a.substr(0,2),16),n=2;a.length-n;n+=2)i=parseInt(a.substr(n,2),16)^r,e+=String.fromCharCode(i);e=document.createTextNode(e),c.parentNode.replaceChild(e,c)}}}catch(u){}}();/* ]]&gt; */&lt;/script&gt;\nFormat settings, CABAC : No\nFormat settings, ReFrames : 2 frames\nCodec ID : V_MPEG4/ISO/AVC\nDuration : 1h 51mn\nBit rate : 384 Kbps\nWidth : 640 pixels\nHeight : 272 pixels\nDisplay aspect ratio : 2.35:1\nFrame rate mode : Constant\nFrame rate : 23.976 fps\nColor space : YUV\nChroma subsampling : 4:2:0\nBit depth : 8 bits\nScan type : Progressive\nBits/(Pixel*Frame) : 0.092\nStream size : 302 MiB (73%)\nWriting library : x264 core 119\nEncoding settings : Cool_Candy\n\n\nAudio\n\nID : 2\nFormat : AC-3\nFormat/Info : Audio Coding 3\nMode extension : CM (complete main)\nFormat settings, Endianness : Big\nCodec ID : A_AC3\nDuration : 1h 51mn\nBit rate mode : Constant\nBit rate : 128 Kbps\nChannel(s) : 2 channels\nChannel positions : Front: L R\nSampling rate : 48.0 KHz\nBit depth : 16 bits\nCompression mode : Lossy\nDelay relative to video : 1mn 5s\nStream size : 102 MiB (25%)\nDefault : Yes\nForced : No\n\n\n::IMDB::\n\n &lt;a href=&quot;\nhttp://www.imdb.com/title/tt1629715&quot; rel=&quot;nofollow&quot; target=&quot;_NEW&quot;&gt;\nhttp://www.imdb.com/title/tt1629715&lt;/a&gt;\n\n\n::Greetz and Respect::\n\n\nALL CREDIT Goes to CoolCandy for Encoding and Distribution.\n\n\n::Poster::\n\n &lt;a href=&quot;\nhttp://i.imgur.com/LmliBia.jpg&quot; rel=&quot;nofollow&quot; target=&quot;_NEW&quot;&gt;\nhttp://i.imgur.com/LmliBia.jpg&lt;/a&gt;\n\n\n::Screenshots::\n\n &lt;a href=&quot;\nhttp://i.imgur.com/JEjKeEm.png&quot; rel=&quot;nofollow&quot; target=&quot;_NEW&quot;&gt;\nhttp://i.imgur.com/JEjKeEm.png&lt;/a&gt;\n\n &lt;a href=&quot;\nhttp://i.imgur.com/ir0UWBu.png&quot; rel=&quot;nofollow&quot; target=&quot;_NEW&quot;&gt;\nhttp://i.imgur.com/ir0UWBu.png&lt;/a&gt;\n\n &lt;a href=&quot;\nhttp://i.imgur.com/nMRgHwj.png&quot; rel=&quot;nofollow&quot; target=&quot;_NEW&quot;&gt;\nhttp://i.imgur.com/nMRgHwj.png&lt;/a&gt;\n\n\nSEED AND ENJOY!","torrent":{"xt":"urn:btih:49ecbcd70185cf10292474ad23ff540620f4539c","amp;dn":"Miss+Lovely+2014+Hindi+DVDSCR-Rip+x264+AC3-CoolCandy+","amp;tr":["udp%3A%2F%2Ftracker.openbittorrent.com%3A80","udp%3A%2F%2Fopen.demonii.com%3A1337","udp%3A%2F%2Ftracker.coppersurfer.tk%3A6969","udp%3A%2F%2Fexodus.desync.com%3A6969"],"infoHash":"49ecbcd70185cf10292474ad23ff540620f4539c","infoHashBuffer":{"type":"Buffer","data":[73,236,188,215,1,133,207,16,41,36,116,173,35,255,84,6,32,244,83,156]},"announce":[],"urlList":[]}}